<?xml version="1.0" encoding="UTF-8" standalone="no"?>
<svg width="153" height="36" viewBox="0 0 153 36" version="1.1" xmlns="http://www.w3.org/2000/svg">
  <defs>
    <rect id="rect2" x="80.594879" y="933.73889" width="628.78528" height="115.44672" />
  </defs>
  <text x="55.768456" y="29.717186"
    style="font-weight:bold;font-size:4.24006px;font-family:Arial, sans-serif;letter-spacing:0.25px;fill:#ffffff">ÉDUCATION · BIEN-ÊTRE · PASSION</text>
  <path d="M 84.151122,21.600258 H 108.9005"
    style="fill:none;stroke:#ffffff;stroke-width:0.795014;stroke-linecap:round" />
  <text transform="matrix(0.19875386,0,0,0.19875386,23.214617,-181.8213)"
    style="font-size:74.6667px;font-family:Arial, sans-serif;letter-spacing:5.03135px;white-space:pre;shape-inside:url(#rect2);fill:#ffffff"
    xml:space="preserve"><tspan x="80.595703" y="1000.9946">ESPRIT CANIN</tspan></text>
  <path d="m 27.38776,13.537893 c 0.197483,1.068703 0.701096,1.8993 1.51084,2.491798 0.419326,-1.191028 0.393256,-2.204729 0.111411,-2.281787 -0.355584,-0.09721 -0.952972,-0.111627 -1.622251,-0.210011 z"
    style="fill:#ffffff" />
  <circle cx="21.395102" cy="12.885476" r="0.59626162" fill="#ffffff" />
  <path d="m 7.2765732,26.985475 c 0.90772,-3.171601 1.4604551,-4.183529 3.1378358,-7.066505"
    style="fill:none;stroke:#ffffff;stroke-width:1.19638;stroke-linecap:round" />
  <path d="m 12.863452,24.612966 c 1.899859,2.255127 2.621178,1.648079 4.959984,4.492474 1.297319,1.577766 2.210086,3.326587 2.723161,5.105794 1.341752,-1.709879 0.922272,-3.424167 0.36567,-6.609793 -0.632673,-3.621012 -1.094474,-5.193467 -0.185281,-7.946336 7.825811,2.153798 9.087169,-5.687348 8.283025,-5.907201 -0.765048,-0.209163 -2.63275,-0.01773 -3.982603,-1.161145 C 23.616512,11.391636 23.091519,9.5759435 21.399022,8.6766871 19.257993,7.5391139 16.450216,7.5918027 13.883886,9.2044097 10.710873,11.198234 9.4914567,14.883457 10.25878,16.725727 c 0.755434,1.813724 2.7467,2.593082 4.441454,2.172811 1.071956,-0.265826 2.644993,-1.313819 2.449041,-2.653133 -0.262324,-1.792969 -0.91839,-5.102174 -0.91839,-5.102174"
    style="fill:none;stroke:#ffffff;stroke-width:1.19638;stroke-linecap:round" />
  <path d="m 33.376876,10.290223 a 17.200569,17.200569 0 0 1 0.701009,14.514484 17.200569,17.200569 0 0 1 -10.663617,9.871624"
    style="fill:none;stroke:#ffffff;stroke-width:1.19638;stroke-linecap:round" />
  <path d="M 8.9391746,32.82303 A 17.200569,17.200569 0 0 1 2.6749381,10.800794 17.200569,17.200569 0 0 1 23.838835,2.0652902"
    style="fill:none;stroke:#ffffff;stroke-width:1.19638;stroke-linecap:round" />
  <path d="m 30.989578,7.8020543 c 0.652593,0.9394108 -0.285785,1.9133491 -1.196734,1.7020413 -0.695806,-0.161566 -0.897031,-0.528927 -1.343357,-0.6325272 -0.446326,-0.1036002 -0.788762,0.1376652 -1.484668,-0.023801 -0.91085,-0.2113985 -1.324407,-1.4992293 -0.3248,-2.0552215 1.242187,-0.6908555 1.805551,-1.791642 2.661608,-1.5929373 0.856157,0.1987227 0.877066,1.4350254 1.687951,2.6024457 z"
    style="fill:#ffffff" />
  <path d="M 32.688256,6.5943128 C 32.464063,7.1698082 31.90089,7.487799 31.430391,7.3044903 30.959893,7.1211815 30.760254,6.5060178 30.984437,5.9304227 c 0.269926,-0.6927234 0.940245,-1.2854009 1.410744,-1.1020921 0.470408,0.1833087 0.584182,1.0188383 0.293075,1.7659822 z"
    style="fill:#ffffff" />
  <path d="m 27.619932,3.3730675 c 0.113964,-0.7937123 0.623941,-1.4653457 1.123744,-1.3935709 0.499804,0.071775 0.791945,0.9174777 0.686286,1.6534147 -0.08783,0.6114281 -0.564207,1.0488865 -1.06392,0.9771117 -0.499803,-0.071766 -0.833843,-0.6256181 -0.74611,-1.2369555 z"
    style="fill:#ffffff" />
  <path d="M 29.87647,3.7365115 C 30.105703,3.0293171 30.740461,2.3986577 31.220761,2.5544389 31.701152,2.7101203 31.86318,3.5377162 31.61594,4.3003466 31.425441,4.8879828 30.88168,5.238071 30.401289,5.0822989 29.920989,4.9267082 29.68598,4.3241477 29.87647,3.7365115 Z"
    style="fill:#ffffff" />
  <path d="M 26.463429,6.1518131 C 25.960352,6.1091616 25.594677,5.5756649 25.646849,4.96022 c 0.06776,-0.7989439 0.537885,-1.4990389 1.040953,-1.4563874 0.503168,0.042651 0.843926,0.8699663 0.781118,1.6107632 -0.05218,0.6154448 -0.502324,1.0798687 -1.005491,1.0372173 z"
    style="fill:#ffffff" />
</svg>
